<mxfile host="app.diagrams.net" modified="2023-08-18T12:35:20.345Z" agent="Mozilla/5.0 (Windows NT 10.0; Win64; x64; rv:109.0) Gecko/20100101 Firefox/116.0" etag="vZ6KjJwmr_HkZUR8WR-s" version="21.6.8" type="device">
  <diagram name="PÃ¡gina-1" id="l1V1VQbFW9NW7x1vaXEx">
    <mxGraphModel dx="538" dy="442" grid="1" gridSize="10" guides="1" tooltips="1" connect="1" arrows="1" fold="1" page="1" pageScale="1" pageWidth="827" pageHeight="1169" math="0" shadow="0">
      <root>
        <mxCell id="0" />
        <mxCell id="1" parent="0" />
        <mxCell id="v3cSZ6zS2duVeWj1zDNO-1" value="inicio" style="ellipse;whiteSpace=wrap;html=1;" vertex="1" parent="1">
          <mxGeometry x="220" y="190" width="120" height="80" as="geometry" />
        </mxCell>
      </root>
    </mxGraphModel>
  </diagram>
</mxfile>
